<?xml version="1.0" encoding="utf-8"?>
<!-- Generator: Adobe Illustrator 16.0.0, SVG Export Plug-In . SVG Version: 6.00 Build 0)  -->
<!DOCTYPE svg PUBLIC "-//W3C//DTD SVG 1.1//EN" "http://www.w3.org/Graphics/SVG/1.1/DTD/svg11.dtd">
<svg version="1.1" id="Layer_1" xmlns="http://www.w3.org/2000/svg" xmlns:xlink="http://www.w3.org/1999/xlink" x="0px" y="0px"
	 width="195px" height="35px" viewBox="0 0 195 35" enable-background="new 0 0 195 35" xml:space="preserve">
<title>logo</title>
<desc>Created with Sketch.</desc>
<g id="Mobile">
	<g id="Home" transform="translate(-90.000000, -325.000000)">
		<g id="Group-3">
			<path id="_xF16B_" fill="#7159C1" d="M103.973,338.496L115,345.304l-7.634,6.361l-10.938-7.12L103.973,338.496z M125.982,350.884
				v2.411l-10.938,6.54v0.022l-0.022-0.022L115,359.857v-0.022l-10.915-6.54v-2.411l3.281,2.144l7.634-6.34v-0.045l0.022,0.022
				l0.022-0.022v0.045l7.657,6.34L125.982,350.884z M107.366,325.348L115,331.71l-11.027,6.786l-7.544-6.027L107.366,325.348z
				 M126.027,338.496l7.544,6.049l-10.915,7.12L115,345.304L126.027,338.496z M122.656,325.348l10.915,7.121l-7.544,6.027
				L115,331.71L122.656,325.348z"/>
			<g enable-background="new    ">
				<path fill="#7159C1" d="M163.332,346.668l3.904,1.238c-0.599,2.176-1.594,3.793-2.986,4.849
					c-1.392,1.057-3.158,1.585-5.298,1.585c-2.648,0-4.825-0.904-6.529-2.714c-1.705-1.809-2.558-4.282-2.558-7.42
					c0-3.319,0.857-5.897,2.571-7.733c1.714-1.836,3.967-2.755,6.76-2.755c2.439,0,4.421,0.722,5.945,2.163
					c0.907,0.853,1.587,2.077,2.04,3.673l-3.985,0.952c-0.236-1.034-0.728-1.85-1.476-2.448s-1.657-0.898-2.728-0.898
					c-1.478,0-2.677,0.531-3.598,1.592c-0.92,1.062-1.381,2.78-1.381,5.155c0,2.521,0.454,4.317,1.36,5.387
					c0.907,1.07,2.086,1.605,3.537,1.605c1.07,0,1.991-0.34,2.762-1.021C162.443,349.198,162.997,348.128,163.332,346.668z"/>
				<path fill="#7159C1" d="M170.664,354v-19.941h3.823V354H170.664z"/>
				<path fill="#7159C1" d="M177.52,346.573c0-1.27,0.313-2.499,0.939-3.687c0.625-1.188,1.512-2.095,2.659-2.721
					c1.147-0.626,2.428-0.938,3.843-0.938c2.186,0,3.977,0.709,5.373,2.129c1.396,1.419,2.096,3.212,2.096,5.38
					c0,2.186-0.706,3.997-2.115,5.435c-1.411,1.437-3.186,2.155-5.326,2.155c-1.324,0-2.587-0.299-3.789-0.897
					s-2.115-1.476-2.741-2.632C177.833,349.641,177.52,348.232,177.52,346.573z M181.438,346.777c0,1.433,0.34,2.529,1.02,3.291
					s1.519,1.143,2.517,1.143s1.834-0.381,2.51-1.143s1.014-1.867,1.014-3.318c0-1.415-0.338-2.503-1.014-3.265
					s-1.512-1.143-2.51-1.143s-1.836,0.381-2.517,1.143S181.438,345.344,181.438,346.777z"/>
				<path fill="#7159C1" d="M208.563,354h-3.823v-7.373c0-1.56-0.081-2.568-0.245-3.026c-0.162-0.458-0.428-0.813-0.795-1.067
					s-0.81-0.381-1.326-0.381c-0.662,0-1.257,0.181-1.782,0.544c-0.526,0.362-0.887,0.843-1.081,1.441
					c-0.195,0.599-0.293,1.705-0.293,3.319V354h-3.822v-14.446h3.551v2.122c1.26-1.633,2.847-2.448,4.76-2.448
					c0.844,0,1.615,0.151,2.313,0.455c0.699,0.305,1.227,0.692,1.586,1.163c0.357,0.472,0.607,1.007,0.748,1.605
					s0.211,1.455,0.211,2.571V354z"/>
				<path fill="#7159C1" d="M220.805,349.402l3.809,0.64c-0.49,1.396-1.264,2.46-2.319,3.189c-1.057,0.73-2.378,1.095-3.966,1.095
					c-2.512,0-4.371-0.82-5.576-2.462c-0.953-1.314-1.429-2.975-1.429-4.979c0-2.395,0.626-4.269,1.877-5.625
					c1.251-1.355,2.834-2.033,4.747-2.033c2.15,0,3.846,0.709,5.088,2.129c1.242,1.419,1.836,3.593,1.782,6.522h-9.577
					c0.027,1.134,0.336,2.016,0.926,2.646c0.59,0.631,1.324,0.945,2.203,0.945c0.599,0,1.102-0.163,1.51-0.489
					C220.287,350.653,220.596,350.128,220.805,349.402z M221.021,345.539c-0.027-1.106-0.313-1.947-0.856-2.523
					s-1.206-0.863-1.985-0.863c-0.835,0-1.524,0.304-2.068,0.911s-0.812,1.433-0.803,2.476H221.021z"/>
				<path fill="#7159C1" d="M227.973,334.059h7.972c1.578,0,2.755,0.065,3.53,0.197c0.775,0.131,1.469,0.405,2.081,0.822
					c0.612,0.418,1.122,0.973,1.53,1.667c0.408,0.693,0.611,1.471,0.611,2.333c0,0.934-0.251,1.791-0.754,2.57
					c-0.504,0.78-1.186,1.365-2.047,1.755c1.215,0.354,2.148,0.957,2.801,1.81c0.654,0.853,0.98,1.854,0.98,3.006
					c0,0.907-0.211,1.789-0.633,2.646c-0.422,0.857-0.998,1.542-1.728,2.055c-0.729,0.512-1.63,0.827-2.7,0.945
					c-0.672,0.072-2.29,0.118-4.856,0.136h-6.788V334.059z M232,337.377v4.611h2.639c1.568,0,2.543-0.022,2.924-0.067
					c0.689-0.082,1.231-0.32,1.626-0.715s0.592-0.913,0.592-1.557c0-0.617-0.17-1.118-0.511-1.504
					c-0.34-0.385-0.846-0.618-1.516-0.7c-0.399-0.045-1.547-0.068-3.441-0.068H232z M232,345.308v5.332h3.727
					c1.451,0,2.371-0.04,2.762-0.122c0.598-0.108,1.086-0.374,1.462-0.796s0.565-0.986,0.565-1.693c0-0.599-0.146-1.106-0.436-1.523
					c-0.291-0.417-0.71-0.721-1.259-0.911s-1.739-0.286-3.571-0.286H232z"/>
				<path fill="#7159C1" d="M247.166,346.573c0-1.27,0.313-2.499,0.939-3.687c0.625-1.188,1.512-2.095,2.659-2.721
					s2.429-0.938,3.843-0.938c2.186,0,3.977,0.709,5.373,2.129c1.396,1.419,2.096,3.212,2.096,5.38c0,2.186-0.706,3.997-2.115,5.435
					c-1.411,1.437-3.186,2.155-5.326,2.155c-1.324,0-2.587-0.299-3.789-0.897c-1.201-0.599-2.115-1.476-2.74-2.632
					C247.479,349.641,247.166,348.232,247.166,346.573z M251.084,346.777c0,1.433,0.34,2.529,1.021,3.291s1.519,1.143,2.517,1.143
					s1.834-0.381,2.51-1.143s1.014-1.867,1.014-3.318c0-1.415-0.338-2.503-1.014-3.265s-1.512-1.143-2.51-1.143
					s-1.836,0.381-2.517,1.143S251.084,345.344,251.084,346.777z"/>
				<path fill="#7159C1" d="M263.231,354l5.21-7.44l-4.992-7.006h4.666l2.557,3.972l2.693-3.972h4.489l-4.897,6.842l5.347,7.604
					h-4.693l-2.938-4.476L267.707,354H263.231z"/>
			</g>
		</g>
	</g>
</g>
</svg>
